<svg width="2425" height="444" viewBox="0 0 2425 444" fill="none" xmlns="http://www.w3.org/2000/svg">
<path d="M1352.05 395V346H1358.05C1362.65 346 1364.05 346.8 1364.05 350C1364.05 352.2 1364.65 354 1365.25 354C1365.85 354 1368.65 352.2 1371.45 350C1375.25 347.2 1379.65 346 1387.25 346C1396.85 346 1398.85 346.8 1406.05 353.2C1430.85 375.6 1417.85 420 1386.65 420C1382.45 420 1376.45 418.6 1373.25 417C1370.25 415.4 1367.05 414 1366.25 414C1365.65 414 1365.25 420.8 1365.65 429L1366.45 444H1359.25H1352.05V395ZM1396.65 403.8C1407.85 395.2 1408.65 374.2 1398.05 363.6C1384.45 350 1364.05 362.2 1364.05 384.2C1364.05 402 1383.85 414 1396.65 403.8Z" fill="#071D45"/>
<path d="M0.454 420.2C1.854 418.2 29.454 384.2 61.454 344.8C93.654 305.4 141.854 246 168.454 213C222.654 146.2 215.654 152.2 260.654 134L286.054 123.6V92.8C286.054 53.8 285.054 55 320.054 56.6C333.054 57.2 345.254 58.4 347.054 59.4C350.054 61.2 350.454 66.4 350.254 110.6C350.054 137.8 350.654 160 351.654 160C352.454 160 356.054 157 359.654 153.4C365.854 147 366.054 146.6 366.054 127.6C366.054 117 366.854 106 368.054 103.2C371.654 93.8 385.254 87 518.454 29.8C556.654 13.4 589.654 0 591.654 0C594.254 0 614.654 20.4 649.254 57.4C731.254 144.8 732.454 146 729.854 149.2C728.654 150.8 726.054 152 724.254 152C722.454 152 715.454 154.6 708.654 157.8L696.254 163.8L663.454 130.4C624.454 90.6 586.654 55.4 584.254 56.4C583.054 56.8 557.454 87.6 526.854 125C496.454 162.4 437.654 234.4 396.254 285C355.054 335.6 312.654 387.6 302.054 400.4L283.054 424H140.454C1.85399 424 -2.146 423.8 0.454 420.2Z" fill="#071D45"/>
<path d="M1089.45 418.6C1088.65 418 1088.05 401.2 1088.05 381.4V345.6L1110.05 346.4C1130.45 347 1132.25 347.4 1136.85 352C1143.45 359 1144.65 365.8 1140.45 374C1137.05 380.8 1137.25 381 1141.65 385.8C1148.45 393 1147.65 404.8 1140.05 412C1136.85 415 1131.25 418 1127.85 418.8C1119.45 420.4 1091.05 420.4 1089.45 418.6ZM1127.65 404.8C1132.65 401.4 1133.45 393.6 1129.05 390C1127.45 388.8 1120.85 387.2 1114.05 386.6L1102.05 385.4V395.6C1102.05 405.2 1102.45 405.8 1107.65 406.6C1118.85 408.2 1123.25 408 1127.65 404.8ZM1127.65 373.6C1129.05 372.2 1130.05 369.4 1130.05 367C1130.05 360.2 1126.05 358 1113.65 358H1102.05V367V376H1113.65C1120.05 376 1126.25 375 1127.65 373.6Z" fill="#071D45"/>
<path d="M1193.65 418.8C1192.65 418 1192.05 395.4 1192.05 368.6V320H1217.85C1242.65 320 1244.05 320.2 1249.85 325C1261.25 334.8 1262.45 350.4 1252.85 361.8C1248.25 367.4 1248.05 367.8 1251.85 369C1262.05 372.2 1266.25 393.2 1259.05 405.6C1252.65 416.4 1245.65 418.8 1219.05 419.6C1205.85 420 1194.45 419.6 1193.65 418.8ZM1243.45 401.6C1250.05 394.6 1250.25 384.2 1244.05 378C1240.65 374.6 1237.45 374 1223.05 374H1206.05V390V406H1222.65C1237.45 406 1239.85 405.4 1243.45 401.6ZM1239.25 357.4C1245.85 351.8 1246.65 342.2 1241.05 336C1238.05 332.6 1234.85 332 1221.65 332H1206.05V345.6C1206.05 353.2 1206.65 360 1207.45 360.6C1208.05 361.4 1214.45 362 1221.25 362C1231.65 362 1234.85 361.2 1239.25 357.4Z" fill="#071D45"/>
<path d="M1290.05 415.8C1273.25 406 1267.05 382.4 1276.45 364C1284.05 349 1305.65 341.6 1319.65 348.8C1341.45 360.2 1346.45 391.4 1329.45 409.6C1319.25 420.6 1302.85 423.2 1290.05 415.8ZM1315.65 404.8C1334.25 391.8 1326.25 358 1304.45 358C1295.85 358 1286.85 367 1285.05 377.6C1281.65 397.8 1301.05 415 1315.65 404.8Z" fill="#071D45"/>
<path d="M1450.06 418.6C1433.86 412.4 1423.45 391 1428.25 373.2C1432.85 355.8 1444.86 346 1461.46 346C1473.46 346 1482.05 351 1489.25 362C1493.85 368.8 1494.86 372.6 1494.86 382.6C1494.66 397.2 1491.25 405.2 1480.65 413.8C1474.45 419 1471.46 420 1463.06 419.8C1457.66 419.8 1451.66 419.2 1450.06 418.6ZM1471.65 404.8C1489.85 392.2 1482.06 358 1461.06 358C1449.66 358 1440.06 369.6 1440.06 383.2C1440.06 401 1458.85 413.8 1471.65 404.8Z" fill="#071D45"/>
<path d="M1508.05 384.2V348H1514.05C1519.85 348 1519.85 348 1520.45 361.6L1521.05 375H1538.05H1555.05V361V347L1561.65 346.4L1568.05 345.8V382.8V420H1562.05H1556.25L1555.65 404.6L1555.05 389L1537.65 388.4L1520.25 387.8L1520.65 403.4L1521.05 419L1514.65 419.6L1508.05 420.2V384.2Z" fill="#071D45"/>
<path d="M1602.05 417.8C1589.65 412.8 1581.45 398.4 1581.45 382C1581.45 369 1585.05 361 1595.05 352.2C1601.25 346.8 1603.65 346 1613.45 346C1632.65 346 1643.85 356.8 1647.05 378.6L1648.45 388H1621.25C1606.25 388 1594.05 388.4 1594.05 389C1594.05 392.2 1600.65 402.2 1604.45 404.8C1610.65 409.2 1620.45 408.8 1626.65 404C1631.25 400.4 1644.05 398.4 1644.05 401.2C1644.05 404.4 1635.05 414.4 1630.05 417C1623.45 420.4 1609.65 420.8 1602.05 417.8ZM1634.05 375C1634.05 371.6 1627.45 361.8 1624.25 360C1617.05 356.2 1607.05 357.6 1601.45 363C1598.85 365.8 1596.05 369.8 1595.45 372C1594.45 375.8 1595.45 376 1614.25 376C1625.05 376 1634.05 375.6 1634.05 375Z" fill="#071D45"/>
<path d="M1653.05 414.6C1656.05 409.8 1661.05 403.2 1676.45 382.8C1677.45 381.4 1673.45 374.8 1666.05 365.2C1659.25 356.8 1654.45 349 1655.05 348C1655.65 346.8 1658.85 346 1661.85 346C1666.45 346 1669.25 348.6 1679.25 362.4L1691.05 378.8L1691.65 363.4L1692.25 348H1699.05H1705.85L1706.45 363L1707.05 377.8L1718.65 362C1729.45 347.4 1731.05 346 1737.25 346C1741.05 346 1744.05 346.6 1744.05 347.4C1744.05 348.2 1738.65 355.8 1731.85 364.4L1719.85 380.2L1733.65 399.6L1747.65 419L1741.65 419.6C1732.85 420.6 1731.25 419.6 1720.85 404.2C1715.45 396.4 1709.85 390 1708.65 390C1706.85 390 1706.05 394.4 1706.05 405V420H1699.05H1692.05V403.8C1692.05 391.8 1691.45 387.8 1689.65 388.4C1688.25 389 1682.05 396.2 1676.05 404.6C1665.65 419.2 1664.85 420 1657.45 420H1649.65L1653.05 414.6Z" fill="#071D45"/>
<path d="M1769.05 416.4C1756.25 408.2 1750.05 396.8 1750.05 381.2C1750.05 370.2 1757.25 356.2 1766.05 350.4C1775.85 343.8 1795.25 344.8 1803.25 352C1810.25 358.6 1816.05 371.2 1816.05 380.6V388H1790.05C1760.45 388 1758.85 389.2 1770.85 401.2C1778.85 409.2 1786.85 410 1794.85 403.8C1798.45 401 1802.25 400 1807.45 400.4L1815.05 401L1806.85 409.8C1799.25 418 1797.85 418.8 1786.85 419.4C1777.65 420 1773.65 419.4 1769.05 416.4ZM1802.05 373.2C1802.05 371.6 1799.65 367.6 1796.85 364.2C1787.25 352.8 1769.65 357 1765.05 371.6C1763.85 376 1764.05 376 1782.85 376C1798.05 376 1802.05 375.4 1802.05 373.2Z" fill="#071D45"/>
<path d="M730.055 384V362H752.055H774.055V384V406H752.055H730.055V384Z" fill="#071D45"/>
<path d="M786.055 384V362H808.055H830.055V384V406H808.055H786.055V384Z" fill="#071D45"/>
<path d="M730.055 326V304H752.055H774.255L773.655 325.6L773.055 347L751.655 347.6L730.055 348.2V326Z" fill="#071D45"/>
<path d="M786.055 326V304H808.055H830.255L829.655 325.6L829.055 347L807.655 347.6L786.055 348.2V326Z" fill="#071D45"/>
<path d="M1768.26 241.8C1768.46 231.8 1769.06 219.8 1769.66 215C1770.46 206.8 1771.06 206.2 1776.86 205.6C1781.66 205.2 1783.86 203.4 1786.46 198C1790.86 188.8 1791.86 181.6 1795.66 138L1799.06 101L1843.66 100.4L1888.06 100V153V206H1896.06H1904.06V233V260H1891.06H1878.26L1877.66 246.6L1877.06 233L1836.66 232.4L1796.06 232V246V260H1781.86H1767.86L1768.26 241.8ZM1860.06 165V124H1842.06C1821.06 124 1822.86 121.2 1821.06 156C1820.06 176.6 1817.46 192 1813.06 202.6C1811.66 205.8 1813.66 206 1835.86 206H1860.06V165Z" fill="#071D45"/>
<path d="M1496.65 232.6C1494.85 232 1494.05 227.4 1494.05 219.8V208H1501.25C1506.85 208 1510.05 206.4 1515.45 201C1519.25 197.2 1522.05 193.4 1521.65 192.6C1521.25 191.6 1510.85 171 1498.65 146.6C1486.45 122.4 1476.85 101.8 1477.45 101.2C1478.25 100.6 1484.65 100 1492.05 100H1505.25L1520.05 130C1528.05 146.6 1535.45 159.4 1536.05 158.6C1536.85 157.6 1542.65 144.8 1549.05 130C1555.45 115.2 1561.45 101.8 1562.65 100.4C1564.25 98.2001 1592.05 96.6 1592.05 98.8C1592.05 99.2 1585.45 114.4 1577.25 132.4C1569.25 150.2 1557.85 175.8 1551.85 189C1540.05 215.4 1533.05 224.8 1521.05 230.2C1513.45 233.8 1502.05 234.8 1496.65 232.6Z" fill="#071D45"/>
<path d="M1953.65 229.2C1935.05 221.6 1925.65 212.2 1916.65 192.6C1912.25 183 1911.25 178 1911.25 164.8C1911.25 150.4 1912.05 147 1917.65 135.4C1925.65 119.4 1938.05 107.8 1953.85 101.8C1970.45 95.6 1994.85 97 2009.85 105C2021.85 111.6 2031.85 122.8 2038.45 137.2C2045.25 151.8 2045.05 180.8 2038.05 195C2022.25 227.4 1985.45 242.2 1953.65 229.2ZM1993.05 204.2C2014.85 194.4 2023.65 164.6 2011.25 142.8C2004.65 131.2 1993.85 123.6 1982.45 122.4C1968.85 121.2 1959.85 124.6 1950.45 134.8C1934.05 152.6 1934.25 178.4 1950.65 195.8C1962.45 208.2 1977.65 211.2 1993.05 204.2Z" fill="#071D45"/>
<path d="M2051.45 232.6C2048.45 231.8 2048.05 229.8 2048.45 220.4C2049.05 209.4 2049.25 209.2 2056.05 207.4C2064.45 205.2 2067.85 202.6 2070.25 196.6C2071.65 193 2080.05 112.2 2080.05 102.6C2080.05 100.6 2089.45 100 2125.05 100H2170.05V166V232H2156.05H2142.05V178V124H2123.45H2104.85L2102.45 156.6C2101.05 174.4 2098.85 193.8 2097.45 199.4C2094.05 212.2 2085.85 225 2078.45 228.8C2072.25 232 2056.85 234.2 2051.45 232.6Z" fill="#071D45"/>
<path d="M1088.05 164.8V97.6001L1122.65 98.4001C1161.05 99.4001 1169.25 101.6 1178.25 114.4C1185.05 123.8 1185.85 141.4 1180.25 150.6C1177.85 154.4 1174.65 158.2 1173.05 158.8C1168.65 160.4 1169.45 162.8 1175.85 166.6C1182.85 170.6 1190.05 184.6 1190.05 193.6C1190.05 201.2 1185.45 213 1180.45 218.8C1178.65 220.8 1172.65 224.6 1167.05 227.2C1157.85 231.6 1154.65 232 1122.65 232H1088.05V164.8ZM1152.65 205.6C1163.65 199.8 1165.25 188.8 1156.05 179.8C1150.25 174 1149.85 173.8 1132.65 174.4L1115.05 175L1114.45 188.8C1114.05 196.4 1114.25 203.8 1114.85 205.4C1116.25 208.8 1146.25 209 1152.65 205.6ZM1150.25 149.4C1155.45 145.4 1158.25 138.4 1156.85 133C1154.85 124.6 1148.85 122 1131.85 122H1116.65L1115.45 135.4C1114.85 143 1114.85 149.6 1115.45 150.4C1116.85 153 1146.85 152 1150.25 149.4Z" fill="#071D45"/>
<path d="M1207.06 165.6V99.0001L1220.66 98.4001L1234.06 97.8V120.6V143.6L1252.66 144.4C1279.46 145.6 1294.26 154.6 1301.06 173.8C1308.66 195.8 1300.46 216.4 1279.66 226.8C1269.86 231.8 1267.66 232 1238.06 232H1206.86L1207.06 165.6ZM1270.86 200.8C1276.86 194.8 1277.66 186.8 1273.06 178.2C1269.46 171.2 1261.06 168 1245.86 168H1234.06V187V206H1249.86C1264.06 206 1266.06 205.6 1270.86 200.8Z" fill="#071D45"/>
<path d="M1315.05 229.4C1314.45 228 1314.25 198.2 1314.45 163L1315.05 99.0001L1328.65 98.4001L1342.05 97.8V165V232H1329.05C1320.25 232 1315.65 231.2 1315.05 229.4Z" fill="#071D45"/>
<path d="M1366.05 168.4C1366.05 121.6 1366.65 104.2 1368.45 102.4C1369.85 101 1376.05 100 1382.65 100H1394.25L1393.65 128C1393.25 143.4 1393.45 156 1394.05 156C1394.65 156 1404.85 143 1417.05 127L1438.85 98H1454.45C1463.05 98 1470.05 98.6 1470.05 99.2C1470.05 99.8 1459.25 114.2 1446.05 131C1432.85 147.8 1422.05 162.4 1422.05 163C1422.05 163.8 1433.85 179.2 1448.05 197.2C1462.45 215.2 1474.05 230.4 1474.05 231C1474.05 231.6 1466.65 232 1457.65 232H1441.05L1418.05 202.4L1395.05 173L1394.45 202.6L1393.85 232H1380.05H1366.05V168.4Z" fill="#071D45"/>
<path d="M1602.45 165.6L1603.05 99L1656.65 98.4L1710.05 98V136.4C1710.05 157.6 1710.65 187.8 1711.45 203.6L1712.65 232H1698.45H1684.05V178V124H1657.05H1630.05V178V232H1616.05H1602.05L1602.45 165.6Z" fill="#071D45"/>
<path d="M2194.05 167.2C2194.05 114.8 2194.65 102 2196.85 100.2C2198.65 98.6 2213.05 98 2244.25 98.4L2289.05 99L2289.65 111.6L2290.25 124H2256.05H2222.05V138V152H2252.05H2282.05V159.6C2282.05 163.6 2282.65 169 2283.25 171.6L2284.45 176H2253.25H2222.05V191V206H2256.05H2290.05V219V232H2242.05H2194.05V167.2Z" fill="#071D45"/>
<path d="M2310.05 166V99.8L2323.45 100.4L2336.65 101L2336.85 142.4C2337.05 165.4 2337.25 184 2337.45 184C2337.65 184 2350.65 166.2 2366.25 144.6C2381.85 122.8 2396.45 103.4 2398.85 101.6C2401.65 99.2 2406.65 98 2413.65 98H2424.05V165V232H2410.05H2396.05V191C2396.05 168.4 2395.45 150 2394.65 150C2393.05 150 2358.05 199.4 2343.85 221.4L2337.05 232H2323.65H2310.05V166Z" fill="#071D45"/>
<path d="M2349.85 85.4C2342.65 80.8 2334.85 67.6 2337.05 64C2337.65 63 2342.25 62 2347.05 62C2354.05 62 2356.05 62.8 2357.05 66.2C2360.05 75.4 2374.05 75.4 2377.05 66C2378.05 62.6 2380.05 62 2389.05 62H2399.85L2398.05 67.8C2395.45 77.2 2392.45 81.4 2385.25 85.8C2375.85 91.8 2359.05 91.6 2349.85 85.4Z" fill="#071D45"/>
<path d="M277.052 42.3999C277.852 37.1999 278.652 32.7999 278.852 32.5999C281.052 30.1999 331.052 27.5999 348.652 28.7999L370.052 30.3999V41.1999C370.052 47.1999 369.452 51.9999 368.652 51.9999C368.052 51.9999 357.452 49.9999 345.252 47.7999C320.452 42.9999 296.052 43.3999 283.052 48.7999L275.652 51.9999L277.052 42.3999Z" fill="#071D45"/>
<path d="M407.256 421.6C410.056 417 508.456 287.8 536.456 252C549.256 235.6 550.456 234.8 566.456 228.2C582.856 221.4 693.256 173.2 746.856 149.4L774.656 137.2L780.256 144C785.256 150.4 833.256 211.2 864.656 251C871.656 259.8 901.056 297.2 930.056 334C959.056 370.8 986.056 405.2 990.456 410.4C994.656 415.6 998.056 420.6 998.056 421.8C998.056 425.6 973.056 424.6 968.456 420.6C966.256 418.6 943.856 391 918.656 359C893.256 327.2 859.656 284.6 843.856 264.8C828.056 244.8 805.656 216.6 794.456 202.2C783.056 187.8 772.456 176 771.256 176C769.856 176 751.656 200 731.056 229.6C676.656 306.8 664.656 323.6 627.056 376.6L593.456 424H499.656C425.056 424 406.056 423.4 407.256 421.6Z" fill="#F3BF14"/>
</svg>
