<svg xmlns="http://www.w3.org/2000/svg" viewBox="0 0 300 86" role="img" aria-labelledby="logo-title">
  <title id="logo-title">Выкуп долей в Воронеже</title>
  <defs>
    <filter id="softShadow" x="-20%" y="-20%" width="140%" height="140%">
      <feDropShadow dx="0" dy="2" stdDeviation="1.6" flood-color="#082448" flood-opacity="0.12" />
    </filter>
  </defs>
  <g filter="url(#softShadow)">
    <path d="M18 60 L62 22 L82 22 L45 60 Z" fill="#082448" />
    <path d="M63 20 L89 42 L81 48 L57 28 Z" fill="#082448" />
    <path d="M61 60 L111 31 L127 34 L91 60 Z" fill="#dfb94c" />
    <path d="M106 42 L128 60 L96 60 Z" fill="#dfb94c" />
    <path d="M31 34 L31 21 L38 21 L38 28 Z" fill="#082448" />
    <g fill="#082448">
      <rect x="107" y="58" width="6" height="6" rx="1" />
      <rect x="116" y="58" width="6" height="6" rx="1" />
      <rect x="107" y="67" width="6" height="6" rx="1" />
      <rect x="116" y="67" width="6" height="6" rx="1" />
    </g>
  </g>
  <g fill="#082448" font-family="'Inter Tight', Arial, sans-serif">
    <text x="148" y="38" font-size="23" font-weight="800" letter-spacing="0">ВЫКУП ДОЛЕЙ</text>
    <text x="148" y="62" font-size="17" font-weight="700" letter-spacing="0">в Воронеже</text>
  </g>
</svg>
